<svg width="55" height="27" viewBox="0 0 55 27" fill="none" xmlns="http://www.w3.org/2000/svg">
<path d="M0 19C0 8.50659 8.50659 0 19 0H41C48.732 0 55 6.26801 55 14V16C55 22.0751 50.0751 27 44 27H0V19Z" fill="#4BBDF1"/>
<path d="M8.66412 13.071V9.65H10.3141C10.3141 11.322 10.3141 11.333 10.3141 13.005C10.3141 13.456 10.4131 14.116 10.9851 14.116C11.4801 14.116 11.6011 13.39 11.6011 13.005C11.6011 11.333 11.5901 11.322 11.5901 9.65H13.2401V13.071C13.2401 14.171 12.7341 15.238 11.7551 15.623V19H10.1051V15.601C9.15912 15.205 8.66412 14.149 8.66412 13.071ZM14.1212 11.916C14.1212 10.574 15.1002 9.639 16.4312 9.639C17.7512 9.639 18.7082 10.596 18.7082 11.916V19H17.0582V15.766H15.7712C15.7712 16.844 15.7712 17.922 15.7712 19H14.1212V11.916ZM15.7712 14.116H17.0582V12.631C17.0582 12.081 17.2342 11.289 16.4312 11.289C15.8372 11.289 15.7602 11.619 15.7602 12.136C15.7602 12.796 15.7602 13.456 15.7712 14.116ZM21.2389 19H19.5889V9.65H21.4809C23.0539 9.65 24.1759 10.772 24.1759 12.345V14.611C24.1759 16.184 23.0539 17.306 21.4809 17.306H21.2389V19ZM21.5909 11.3C21.4699 11.3 21.3489 11.3 21.2389 11.3V15.656C21.9869 15.656 22.3939 15.557 22.5259 14.732V12.345C22.5259 11.751 22.1959 11.333 21.5909 11.3ZM27.8727 15.711C27.4657 14.963 25.0567 15.205 25.0567 12.356C25.0567 10.992 25.8597 9.65 27.3557 9.65C28.3347 9.65 29.1597 10.354 29.4787 11.256C29.5997 11.608 29.6437 11.982 29.6547 12.356H28.0047C27.9937 11.971 27.8507 11.3 27.3557 11.3C26.8387 11.3 26.7067 11.949 26.7067 12.356C26.7067 12.697 26.7507 13.06 27.0037 13.302C27.2127 13.5 27.6417 13.654 27.9057 13.775C29.0607 14.292 29.6437 14.996 29.6437 16.305C29.6437 17.306 29.2037 18.351 28.2577 18.791C27.9717 18.923 27.6637 19.011 27.3447 19.011C26.3547 19.011 25.5407 18.34 25.2327 17.416C25.1117 17.053 25.0677 16.679 25.0567 16.305H26.7067C26.7177 16.701 26.8277 17.361 27.3447 17.361C27.3997 17.361 27.4657 17.339 27.5207 17.317C27.8947 17.141 27.9937 16.679 27.9937 16.305C27.9937 16.118 27.9717 15.887 27.8727 15.711ZM30.5245 11.927C30.5245 10.596 31.5035 9.65 32.8345 9.65C34.1545 9.65 35.1115 10.607 35.1115 11.927V14.523H32.1745V16.723C32.1745 17.13 32.3945 17.35 32.8015 17.35C33.3185 17.35 33.4725 17.097 33.4725 16.635C33.4725 16.239 33.4615 15.843 33.4615 15.458H35.1115V16.723C35.1115 18.065 34.1325 19 32.8015 19C31.4815 19 30.5245 18.043 30.5245 16.723V11.927ZM32.1745 12.873H33.4725C33.4725 12.466 33.4945 11.784 33.3955 11.575C33.2855 11.366 33.0545 11.3 32.8345 11.3C32.4165 11.3 32.1745 11.498 32.1745 11.927V12.873ZM38.8082 15.711C38.4012 14.963 35.9922 15.205 35.9922 12.356C35.9922 10.992 36.7952 9.65 38.2912 9.65C39.2702 9.65 40.0952 10.354 40.4142 11.256C40.5352 11.608 40.5792 11.982 40.5902 12.356H38.9402C38.9292 11.971 38.7862 11.3 38.2912 11.3C37.7742 11.3 37.6422 11.949 37.6422 12.356C37.6422 12.697 37.6862 13.06 37.9392 13.302C38.1482 13.5 38.5772 13.654 38.8412 13.775C39.9962 14.292 40.5792 14.996 40.5792 16.305C40.5792 17.306 40.1392 18.351 39.1932 18.791C38.9072 18.923 38.5992 19.011 38.2802 19.011C37.2902 19.011 36.4762 18.34 36.1682 17.416C36.0472 17.053 36.0032 16.679 35.9922 16.305H37.6422C37.6532 16.701 37.7632 17.361 38.2802 17.361C38.3352 17.361 38.4012 17.339 38.4562 17.317C38.8302 17.141 38.9292 16.679 38.9292 16.305C38.9292 16.118 38.9072 15.887 38.8082 15.711ZM41.46 19V9.65H43.11V14.116H44.364V9.65H46.014V19H44.364V15.766H43.11V19H41.46ZM46.8956 18.274C46.8956 17.878 47.2146 17.548 47.6216 17.548C48.0176 17.548 48.3366 17.878 48.3366 18.274C48.3366 18.67 48.0176 19 47.6216 19C47.2146 19 46.8956 18.67 46.8956 18.274Z" fill="white"/>
</svg>
